<svg xmlns="http://www.w3.org/2000/svg" width="438.062" height="114.934" viewBox="142 0 438.062 114.934">
  <g fill="#000">
    <path d="M163.693 32.28v54.255h-1.824V32.28h-20.006V30.71H183.7v1.573h-20.007z"/>
    <path d="M164.824 87.67h-4.084V33.414h-20.008v-3.842h44.1v3.842h-20.008M229.856 73.133c0 2.364-.485 4.47-1.455 6.34-.967 1.868-2.252 3.45-3.856 4.73-1.602 1.295-3.5 2.27-5.685 2.926-2.192.655-4.47.98-6.85.98-3.656 0-6.992-.612-10.005-1.85-3.02-1.23-5.52-2.903-7.515-5.01l1.415-1.185c2.097 2.16 4.55 3.775 7.347 4.852 2.793 1.076 5.686 1.618 8.673 1.618 2.156 0 4.21-.295 6.143-.903 1.938-.604 3.652-1.473 5.15-2.6 1.49-1.14 2.665-2.528 3.53-4.182.853-1.658 1.286-3.564 1.286-5.718 0-2.164-.47-3.97-1.415-5.444-.947-1.475-2.16-2.73-3.657-3.784-1.493-1.057-3.193-1.933-5.1-2.64-1.917-.71-3.83-1.354-5.77-1.936-2.442-.734-4.665-1.52-6.684-2.326-2.024-.818-3.764-1.816-5.234-2.995-1.467-1.187-2.606-2.603-3.4-4.266-.802-1.648-1.208-3.666-1.208-6.023 0-2.314.483-4.382 1.46-6.194.962-1.815 2.28-3.336 3.937-4.575 1.658-1.237 3.58-2.183 5.77-2.84 2.186-.656 4.495-.986 6.933-.986 2.988 0 5.824.54 8.508 1.617 2.686 1.075 4.882 2.608 6.6 4.613l-1.408 1.178c-1.552-1.843-3.532-3.274-5.943-4.29-2.4-1.033-5.02-1.534-7.837-1.534-2 0-3.948.257-5.855.786-1.908.52-3.643 1.32-5.186 2.397-1.554 1.08-2.797 2.433-3.736 4.06-.945 1.636-1.414 3.554-1.414 5.766 0 2.146.417 3.975 1.247 5.477.83 1.5 1.93 2.772 3.32 3.82 1.38 1.058 2.945 1.923 4.695 2.604 1.736.68 3.526 1.316 5.352 1.895 2.488.793 4.815 1.585 6.975 2.408 2.153.812 4.05 1.8 5.686 2.953 1.63 1.16 2.904 2.565 3.816 4.217.912 1.662 1.37 3.67 1.37 6.043z"/>
    <path d="M212.01 89.242c-3.79 0-7.3-.65-10.432-1.933-3.146-1.292-5.81-3.066-7.904-5.278l-.83-.87 3.14-2.63.734.748c1.975 2.037 4.314 3.57 6.938 4.574 4.56 1.77 9.718 2.056 14.077.698 1.806-.565 3.42-1.38 4.806-2.433 1.346-1.02 2.425-2.3 3.202-3.793.765-1.483 1.158-3.235 1.158-5.195 0-1.933-.41-3.557-1.23-4.832-.86-1.34-1.99-2.515-3.355-3.475-1.41-.985-3.037-1.834-4.847-2.505-1.86-.69-3.778-1.336-5.7-1.906-2.44-.735-4.718-1.536-6.778-2.358-2.117-.86-3.978-1.924-5.523-3.17-1.59-1.285-2.84-2.852-3.708-4.642-.878-1.815-1.32-4.006-1.32-6.527 0-2.505.536-4.77 1.594-6.734 1.032-1.94 2.463-3.608 4.26-4.947 1.757-1.304 3.815-2.32 6.12-3.01 5.123-1.534 11.113-1.382 16.19.662 2.84 1.143 5.207 2.8 7.04 4.93l.746.87-3.158 2.642-.725-.864c-1.43-1.7-3.285-3.04-5.52-3.988-3.854-1.643-8.593-1.894-12.952-.697-1.772.487-3.4 1.246-4.84 2.244-1.402.975-2.55 2.217-3.405 3.7-.832 1.45-1.258 3.19-1.258 5.194 0 1.938.373 3.6 1.1 4.93.754 1.353 1.774 2.525 3.02 3.465 1.3.993 2.778 1.81 4.426 2.447 1.703.687 3.478 1.306 5.278 1.872 2.528.798 4.89 1.625 7.025 2.428 2.244.852 4.24 1.89 5.947 3.095 1.77 1.255 3.17 2.8 4.158 4.59 1 1.82 1.503 4.03 1.503 6.588 0 2.527-.525 4.84-1.572 6.862-1.045 2.015-2.448 3.73-4.16 5.097-1.716 1.373-3.754 2.423-6.07 3.118-2.284.685-4.698 1.032-7.175 1.032zM290.79 74.267c-.775 2.76-2.052 5.168-3.813 7.216-1.773 2.057-4.087 3.673-6.936 4.854-2.85 1.186-6.348 1.772-10.5 1.772-4.155 0-7.657-.587-10.5-1.773-2.85-1.18-5.16-2.797-6.935-4.854-1.77-2.048-3.045-4.456-3.82-7.216-.77-2.758-1.155-5.708-1.155-8.866V30.71h1.815V65.08c0 2.216.236 4.574.71 7.063.47 2.5 1.438 4.81 2.91 6.943 1.46 2.123 3.537 3.904 6.22 5.325 2.685 1.416 6.268 2.126 10.755 2.126 4.37 0 7.9-.685 10.582-2.05 2.68-1.363 4.778-3.118 6.265-5.242 1.502-2.133 2.492-4.45 2.993-6.94.5-2.496.747-4.903.747-7.224V30.708h1.824V65.4c.002 3.16-.39 6.11-1.16 8.867z"/>
    <path d="M269.54 89.242c-4.28 0-7.965-.62-10.935-1.854-2.994-1.245-5.47-2.977-7.354-5.158-1.872-2.164-3.244-4.74-4.054-7.652-.797-2.844-1.202-5.93-1.202-9.176v-35.83h4.087V65.08c0 2.137.232 4.446.69 6.852.44 2.335 1.354 4.513 2.724 6.51 1.355 1.973 3.317 3.638 5.822 4.963 2.512 1.325 5.95 1.997 10.225 1.997 4.172 0 7.56-.645 10.073-1.926 2.505-1.275 4.478-2.92 5.85-4.884 1.392-1.992 2.34-4.18 2.808-6.517.483-2.4.73-4.753.73-6.995V29.573h4.09V65.4c0 3.236-.407 6.323-1.208 9.177-.815 2.904-2.18 5.475-4.05 7.652-1.893 2.18-4.36 3.912-7.353 5.157-2.985 1.236-6.66 1.855-10.94 1.855zM313.948 56.327l29.558-25.62h2.656l-29.89 25.62 31.378 30.208h-2.57L313.95 56.483h-.082v30.052h-1.83V30.708h1.83v25.62h.082z"/>
    <path d="M350.463 87.67h-5.837l-29.63-28.597V87.67h-4.092V29.572h4.093v24.35l28.083-24.35h6.147L317.954 56.38M403.435 74.267c-.77 2.76-2.044 5.168-3.81 7.216-1.778 2.057-4.087 3.673-6.938 4.854-2.846 1.186-6.346 1.772-10.5 1.772-4.15 0-7.647-.587-10.5-1.773-2.85-1.18-5.16-2.797-6.937-4.854-1.77-2.048-3.04-4.456-3.814-7.216-.78-2.758-1.16-5.708-1.16-8.866V30.71h1.82V65.08c0 2.216.238 4.574.712 7.063.47 2.5 1.44 4.81 2.902 6.943 1.467 2.123 3.544 3.904 6.225 5.325 2.682 1.416 6.27 2.126 10.752 2.126 4.372 0 7.9-.685 10.58-2.05 2.688-1.363 4.778-3.118 6.275-5.242 1.49-2.133 2.486-4.45 2.986-6.94.5-2.496.745-4.903.745-7.224V30.708h1.832V65.4c0 3.16-.396 6.11-1.17 8.867z"/>
    <path d="M382.187 89.242c-4.282 0-7.956-.62-10.937-1.854-2.996-1.245-5.463-2.977-7.355-5.158-1.872-2.178-3.234-4.748-4.05-7.652-.802-2.854-1.208-5.94-1.208-9.176v-35.83h4.09V65.08c0 2.137.235 4.446.695 6.852.433 2.335 1.35 4.513 2.725 6.51 1.353 1.973 3.315 3.638 5.822 4.963 2.51 1.325 5.945 1.997 10.217 1.997 4.168 0 7.554-.645 10.07-1.926 2.503-1.275 4.477-2.92 5.855-4.884 1.393-1.992 2.335-4.18 2.806-6.517.482-2.42.725-4.778.725-6.995V29.573h4.094V65.4c0 3.236-.406 6.323-1.212 9.177-.818 2.91-2.18 5.488-4.04 7.652-1.896 2.18-4.372 3.918-7.362 5.157-2.973 1.236-6.65 1.855-10.936 1.855z"/>
    <g>
      <path d="M456.4 86.536l-17.762-28.15h-13.78v28.15h-1.83V30.708h16.27c2.157 0 4.347.18 6.565.542 2.21.372 4.186 1.07 5.936 2.086 1.74 1.032 3.16 2.437 4.27 4.23 1.106 1.78 1.663 4.097 1.663 6.933 0 2.626-.53 4.818-1.578 6.544-1.053 1.74-2.408 3.144-4.072 4.218-1.654 1.08-3.494 1.86-5.518 2.327-2.023.476-3.996.717-5.94.717l17.853 28.228H456.4zm-.494-42.037c0-2.412-.502-4.43-1.496-6.033-.996-1.604-2.312-2.86-3.943-3.788-1.633-.92-3.51-1.563-5.64-1.922-2.142-.374-4.31-.553-6.524-.553h-13.445v24.677h14.36c5.425 0 9.556-1.075 12.413-3.234 2.847-2.153 4.276-5.2 4.276-9.15z"/>
      <path d="M460.53 87.67h-4.747l-17.77-28.158h-12.02V87.67H421.9V29.572h17.396c2.205 0 4.477.18 6.752.562 2.332.393 4.455 1.14 6.32 2.23 1.893 1.113 3.465 2.66 4.658 4.598 1.22 1.965 1.832 4.49 1.832 7.536 0 2.826-.584 5.224-1.738 7.132-1.137 1.88-2.627 3.422-4.426 4.584-1.754 1.144-3.734 1.98-5.875 2.484-1.41.32-2.808.54-4.192.654L460.53 87.67zm-34.538-31.915h13.225c5.143 0 9.094-1.01 11.727-3.01 2.582-1.947 3.83-4.64 3.83-8.246 0-2.186-.447-4.023-1.322-5.436-.893-1.43-2.082-2.577-3.545-3.395-1.506-.85-3.285-1.46-5.28-1.804-2.054-.35-4.183-.53-6.323-.53h-12.31v22.42z"/>
    </g>
    <g>
      <path d="M475.664 86.536V30.708h1.822v55.827h-1.822z"/>
      <path d="M474.527 29.573h4.094V87.67h-4.093z"/>
    </g>
    <g>
      <path d="M514.598 32.28v54.255h-1.83V32.28h-20.002V30.71h41.838v1.573h-20.006z"/>
      <path d="M515.73 87.67h-4.093V33.414H491.63v-3.842h44.104v3.842H515.73"/>
    </g>
    <g>
      <path d="M546.557 86.536V30.708h34.285v1.573h-32.46v24.523h30.546v1.58H548.38v26.572h33.786v1.58h-35.61z"/>
      <path d="M583.3 87.67h-37.878V29.572h36.553v3.842h-32.463V55.67h30.55v3.842h-30.55v24.312h33.79"/>
    </g>
  </g>
</svg>
